<svg width="22" height="22" viewBox="0 0 22 22" fill="none" xmlns="http://www.w3.org/2000/svg">
<path d="M20.2083 6.23398C19.2613 4.57074 17.9767 3.25394 16.3543 2.2833C14.7317 1.31261 12.9602 0.827393 11.0387 0.827393C9.11742 0.827393 7.34539 1.31276 5.72307 2.2833C4.10051 3.25389 2.81602 4.57074 1.86903 6.23398C0.922178 7.89718 0.44873 9.7134 0.44873 11.6826C0.44873 14.0481 1.12198 16.1751 2.46882 18.0644C3.81551 19.9538 5.55524 21.2612 7.68785 21.9867C7.9361 22.0339 8.11986 22.0007 8.23935 21.8879C8.35888 21.7749 8.41858 21.6334 8.41858 21.464C8.41858 21.4357 8.41621 21.1814 8.41162 20.7007C8.40689 20.2201 8.40467 19.8008 8.40467 19.443L8.08751 19.4992C7.88529 19.5372 7.63019 19.5533 7.3222 19.5487C7.01436 19.5443 6.69479 19.5112 6.36391 19.4497C6.03289 19.3888 5.725 19.2475 5.44 19.026C5.15515 18.8046 4.95293 18.5147 4.8334 18.1569L4.69552 17.8316C4.60361 17.6151 4.45891 17.3745 4.26124 17.1108C4.06356 16.8469 3.86366 16.668 3.66144 16.5738L3.5649 16.5029C3.50057 16.4558 3.44088 16.3991 3.38567 16.3332C3.33052 16.2673 3.28923 16.2013 3.26165 16.1353C3.23402 16.0692 3.25692 16.015 3.33057 15.9725C3.40422 15.9299 3.53732 15.9093 3.73046 15.9093L4.00613 15.9515C4.19 15.9893 4.41743 16.1021 4.68871 16.2907C4.95984 16.4791 5.18273 16.7241 5.35742 17.0255C5.56895 17.4119 5.82381 17.7064 6.12272 17.909C6.42138 18.1117 6.72251 18.2128 7.02581 18.2128C7.32911 18.2128 7.59107 18.1892 7.81178 18.1424C8.03226 18.0952 8.23911 18.0244 8.43224 17.9302C8.51498 17.2986 8.74023 16.8134 9.10781 16.4742C8.58389 16.4178 8.11286 16.3328 7.69447 16.2197C7.27632 16.1066 6.84422 15.9229 6.39844 15.6682C5.95243 15.4139 5.58243 15.0981 5.28835 14.7214C4.99423 14.3444 4.75284 13.8495 4.56454 13.2372C4.37613 12.6246 4.28191 11.9179 4.28191 11.117C4.28191 9.97658 4.64509 9.00614 5.37133 8.20511C5.03113 7.34775 5.06324 6.38661 5.46777 5.32181C5.73437 5.23691 6.12972 5.30062 6.65364 5.51256C7.17765 5.7246 7.56132 5.90624 7.80502 6.05685C8.04872 6.2074 8.24399 6.33498 8.3911 6.43845C9.24618 6.19353 10.1286 6.07105 11.0386 6.07105C11.9486 6.07105 12.8312 6.19353 13.6863 6.43845L14.2103 6.09937C14.5686 5.87312 14.9917 5.66579 15.4787 5.47731C15.9659 5.28894 16.3384 5.23705 16.596 5.32196C17.0095 6.38681 17.0463 7.3479 16.706 8.20526C17.4322 9.00629 17.7955 9.97698 17.7955 11.1171C17.7955 11.9181 17.701 12.627 17.5129 13.2443C17.3245 13.8617 17.081 14.356 16.7824 14.7284C16.4834 15.1008 16.111 15.4141 15.6652 15.6684C15.2194 15.9229 14.7871 16.1065 14.369 16.2197C13.9506 16.3329 13.4796 16.4179 12.9557 16.4745C13.4335 16.8983 13.6725 17.5674 13.6725 18.4814V21.4636C13.6725 21.633 13.73 21.7745 13.845 21.8875C13.9599 22.0003 14.1413 22.0335 14.3896 21.9863C16.5225 21.2608 18.2622 19.9534 19.6089 18.064C20.9554 16.1747 21.6289 14.0477 21.6289 11.6822C21.6284 9.71325 21.1547 7.89718 20.2083 6.23398Z" fill="#FAEB8C"/>
</svg>
