<svg width="21" height="23" viewBox="0 0 21 23" fill="none" xmlns="http://www.w3.org/2000/svg">
<path d="M5.05952 13.0134C5.05952 13.0134 4.99069 13.4963 4.92185 14.0533C4.88744 14.3326 4.85602 14.6122 4.8276 14.8921C4.81065 15.0266 4.80218 15.1526 4.79371 15.2638C4.78418 15.375 4.78418 15.4714 4.78418 15.554C4.78418 15.7096 4.80218 15.8653 4.84454 16.0136C4.87949 16.1258 4.92185 16.236 4.99069 16.3419C5.09341 16.4965 5.23955 16.6384 5.43653 16.757C5.6335 16.8756 5.86542 16.9646 6.15665 17.0387C6.55166 17.1435 7.01445 17.2177 7.45288 17.2177C7.62443 17.2177 7.78752 17.2028 7.95061 17.1806C8.07028 17.1583 8.18994 17.1276 8.29267 17.0832C8.45575 17.0164 8.61037 16.9201 8.72156 16.7866C8.83244 16.646 8.89815 16.475 8.91007 16.2963C8.93654 15.8579 8.96302 15.286 8.9789 14.8254C8.99691 14.3647 9.00538 14.0089 9.00538 14.0089L8.44728 13.994V14.0533C8.43881 14.335 8.40492 15.5095 8.35303 16.2593C8.34745 16.3377 8.32389 16.4138 8.2842 16.4816C8.2533 16.5226 8.21571 16.5581 8.173 16.5865C8.08231 16.6385 7.98405 16.676 7.88177 16.6977C7.74022 16.723 7.59667 16.7354 7.45288 16.7347C7.08328 16.7347 6.66286 16.668 6.31127 16.5791C6.13147 16.5389 5.95822 16.4737 5.79659 16.3853C5.60906 16.2917 5.4649 16.1293 5.39417 15.932C5.35768 15.8068 5.34018 15.6769 5.34228 15.5465C5.34228 15.4798 5.34228 15.3898 5.35075 15.286C5.37616 14.9154 5.44606 14.3573 5.50536 13.8977C5.53925 13.6668 5.56573 13.4592 5.58267 13.311C5.58899 13.251 5.59747 13.1913 5.60809 13.132C5.61656 13.0875 5.61656 13.0653 5.61656 13.0653L5.05952 13.0134ZM9.54124 4.53394C9.24471 4.53394 9.01173 5.01155 9.01173 5.59294C9.01173 6.17434 9.25319 6.65195 9.54124 6.65195C9.83776 6.65195 10.0707 6.17434 10.0707 5.59294C10.0707 5.01155 9.82929 4.53394 9.54124 4.53394ZM9.6895 5.8524C9.56453 5.8524 9.46287 5.64483 9.46287 5.39597C9.46287 5.14604 9.56453 4.93848 9.6895 4.93848C9.8134 4.93848 9.91506 5.14604 9.91506 5.39597C9.91506 5.65542 9.8134 5.8524 9.6895 5.8524ZM12.5996 5.16193C12.6152 5.12453 12.6367 5.08986 12.6632 5.0592C12.6833 5.04332 12.695 5.0359 12.7151 5.0359C12.7278 5.0359 12.7468 5.04332 12.7659 5.0592C12.7924 5.08356 12.8305 5.14604 12.8623 5.23923C12.8888 5.33454 12.9078 5.45103 12.9078 5.58553H13.2478C13.2478 5.31866 13.2033 5.06662 13.1133 4.87917C13.0742 4.78771 13.0173 4.70492 12.9459 4.6356C12.8849 4.57327 12.8022 4.53685 12.7151 4.53394C12.6282 4.538 12.5459 4.57424 12.4842 4.6356C12.378 4.74782 12.3028 4.88579 12.2661 5.0359C12.2125 5.21666 12.1865 5.40444 12.1888 5.59294H12.5287C12.5223 5.41291 12.5605 5.25512 12.5996 5.16193Z" fill="#FAEB8C"/>
<path d="M19.1496 11.7922C18.9865 11.5527 18.8082 11.3238 18.6159 11.107C18.742 10.9231 18.8338 10.7179 18.887 10.5013C18.9487 10.2424 18.9807 9.97736 18.9823 9.71125C18.9823 9.27282 18.8944 8.86722 18.7281 8.49975C18.5555 8.12675 18.3149 7.78917 18.0186 7.50428L17.7316 7.21623C17.6998 6.90594 17.6437 6.51517 17.541 5.98885C17.2847 4.65767 16.1134 2.61697 14.6869 1.63633C13.3007 0.689579 11.5396 0.314691 10.6002 0.297746C9.82717 0.290333 8.05863 0.577324 6.51248 1.63739C5.086 2.61697 3.81943 4.64179 3.65952 5.9899C3.57268 6.75451 3.54832 7.24059 3.55679 7.60701C3.53244 7.61548 3.38947 7.64725 3.22109 7.76586C3.12102 7.83455 3.03479 7.9215 2.96693 8.02214C2.8787 8.14562 2.81869 8.28697 2.79113 8.43621C2.74348 8.69037 2.71171 8.81851 2.70323 8.89158C2.65746 8.948 2.61771 9.00905 2.58463 9.07373C2.53557 9.15977 2.49548 9.25062 2.46496 9.34484C2.40439 9.53847 2.39347 9.74422 2.43319 9.94318C2.46496 10.0861 2.52003 10.2926 2.6164 10.5489C2.66405 10.6686 2.71912 10.7872 2.78372 10.9228C2.54438 11.178 2.28916 11.4809 2.0583 11.8155C1.27569 12.956 0.431666 15.0285 0.550275 16.2252C0.709126 17.7311 0.908219 17.7798 1.43455 17.4685C2.017 17.1179 2.67782 16.0653 2.67782 16.0653C2.67782 16.0653 3.38735 17.9948 4.54167 19.0231C5.88873 20.2187 7.132 20.9441 8.63791 21.2544C9.61855 21.4535 10.272 21.4853 10.5981 21.4779C10.9328 21.4853 11.5788 21.4535 12.5583 21.2555C14.0653 20.9441 15.3075 20.2177 16.6546 19.0231C17.81 17.9948 18.5184 16.0653 18.5184 16.0653C18.5184 16.0653 19.1803 17.1179 19.7628 17.4685C20.2806 17.7798 20.4871 17.7311 20.647 16.2252C20.7741 15.0137 19.9301 12.9412 19.1485 11.7933L19.1496 11.7922ZM12.6081 3.5023C13.3643 3.5023 13.9785 4.4194 13.9785 5.55042C13.9785 6.68355 13.3643 7.59959 12.6081 7.59959C11.8509 7.59959 11.2367 6.68249 11.2367 5.55042C11.2367 4.4194 11.8509 3.5023 12.6081 3.5023ZM8.77452 3.5023C9.53171 3.5023 10.1449 4.4194 10.1449 5.55042C10.1449 6.68355 9.53171 7.59959 8.77452 7.59959C8.01733 7.59959 7.40416 6.68249 7.40416 5.55042C7.40416 4.4194 8.01839 3.5023 8.77452 3.5023ZM7.76317 8.32501C8.70251 7.91835 10.4244 7.83046 10.8703 7.8061H10.9656C11.4125 7.82199 13.126 7.91835 14.0738 8.32501C15.1646 8.79521 15.7873 9.05043 15.7873 9.31307C15.7873 9.5757 15.5797 9.83198 15.0057 10.0946C14.4328 10.3572 14.1776 10.3011 14.1776 10.3011C14.1776 10.3011 14.4879 9.94318 14.5916 9.5757C14.5916 9.5757 13.0381 10.8592 11.1658 10.9715H10.6468C8.77452 10.8592 7.22201 9.57464 7.22201 9.57464C7.3258 9.94212 7.63609 10.3001 7.63609 10.3001C7.63609 10.3001 7.37345 10.3562 6.80794 10.0936C6.23396 9.82986 6.0264 9.57464 6.0264 9.31201C6.0264 9.04937 6.6798 8.78568 7.76317 8.32395V8.32501ZM3.06965 9.24953C3.0836 9.22696 3.09954 9.20569 3.11731 9.18599C3.12472 9.17751 3.12472 9.17751 3.12472 9.1701L3.18085 9.11397L3.19673 9.03455L3.30051 8.51563C3.3164 8.42032 3.35558 8.35678 3.38841 8.30066C3.41007 8.27246 3.43378 8.24592 3.45937 8.22123C3.49114 8.31654 3.53879 8.4288 3.60339 8.55588C3.73894 8.84181 3.94545 9.20187 4.2568 9.56829C4.71852 10.1264 5.41111 10.7237 6.42352 11.178C7.43593 11.6333 8.77452 11.9436 10.5198 11.9436H10.7665C12.3762 11.9193 13.6364 11.6482 14.6319 11.2585C15.2818 11.0044 15.8889 10.6523 16.4322 10.2143C16.9922 9.76168 17.451 9.19673 17.7792 8.55588C17.8428 8.42032 17.8989 8.30171 17.9381 8.19687C18.0652 8.3642 18.17 8.53999 18.2569 8.71579C18.3924 9.01866 18.4729 9.34484 18.4729 9.71125C18.4729 9.92729 18.4485 10.1497 18.3924 10.389C18.3555 10.5266 18.2992 10.6581 18.2251 10.7798C18.0662 11.0424 17.8036 11.3453 17.469 11.6641C16.8771 12.1972 16.2177 12.6501 15.5077 13.0111C14.7346 13.4104 13.8747 13.7291 13.0063 13.8721C12.4454 13.966 11.8774 14.0113 11.3087 14.0076C10.201 14.0076 9.07739 13.8488 8.0491 13.601C7.11272 13.3818 6.20219 13.0641 5.33275 12.6532C4.41565 12.2063 3.84167 11.6164 3.48372 11.0827C3.32771 10.85 3.19673 10.6015 3.09295 10.3414C3.02539 10.1761 2.97224 10.0053 2.9341 9.83092C2.92533 9.78621 2.92002 9.74089 2.91821 9.69537C2.91821 9.62441 2.9341 9.5524 2.94998 9.48886C2.98 9.40452 3.02018 9.32414 3.06965 9.24953ZM15.8349 18.6874C14.3523 20.6476 11.493 20.9981 10.6077 21.0543C9.72339 20.9907 6.86195 20.6402 5.3804 18.6874C3.61928 16.3512 3.92956 13.8647 4.13713 13.1382C4.18478 12.9719 4.24832 12.8046 4.31187 12.6373C4.5512 12.8046 4.81383 12.9635 5.1093 13.1075C5.88978 13.4898 6.86195 13.8403 7.93049 14.0955C8.99797 14.3508 10.1533 14.5181 11.3087 14.5181C11.906 14.5181 12.5043 14.4704 13.0857 14.3751C14.5048 14.1358 15.8667 13.4824 16.9193 12.7411C16.9267 12.7411 16.9267 12.7326 16.9342 12.7326C16.9903 12.8681 17.0379 13.0037 17.0697 13.1308C17.2847 13.8721 17.596 16.3597 15.8349 18.6874Z" fill="#FAEB8C"/>
<path d="M4.50055 18.9184C4.30128 18.7272 4.11717 18.5208 3.94987 18.301C3.70524 18.4535 3.39177 18.6505 3.18844 18.8284C2.88345 19.1059 2.74789 19.5263 3.02747 19.5888C3.02747 19.5888 1.74078 20.939 3.96787 21.9133C6.22779 22.9066 8.69951 22.6122 9.90995 21.7439C9.96926 21.6994 10.0201 21.6634 10.0709 21.6274C9.66114 21.5814 9.25421 21.5128 8.85201 21.4219C7.25291 21.064 5.93127 20.2507 4.50055 18.9184ZM12.3499 21.4198C11.867 21.5268 11.4688 21.5892 11.1299 21.6252C11.1808 21.6613 11.2316 21.6973 11.2909 21.7417C12.5024 22.6175 14.9837 22.9035 17.2362 21.9112C19.4548 20.9369 18.1766 19.5877 18.1766 19.5877C18.4561 19.5348 18.3121 19.1048 18.0071 18.8284C17.7724 18.6261 17.5168 18.4493 17.2446 18.301C17.0752 18.5245 16.8888 18.7299 16.6939 18.9174C15.2717 20.2581 13.9511 21.0714 12.3499 21.4198Z" fill="#FAEB8C"/>
</svg>
