<svg width="26" height="22" viewBox="0 0 26 22" fill="none" xmlns="http://www.w3.org/2000/svg">
<path d="M23.1703 2.15046L23.0897 1.94605C23.0874 1.94019 23.0828 1.93534 23.0771 1.93273L22.8771 1.84187C21.2312 1.09378 18.9095 0.909196 16.8554 0.827393H14.5418C14.5157 0.827393 14.5077 0.862715 14.5312 0.874001L19.2835 3.15385C19.3103 3.16666 19.2955 3.20658 19.2667 3.19905C17.1294 2.64052 14.9703 2.35781 12.8383 2.35781C10.7131 2.35781 8.56097 2.6388 6.43027 3.19376C6.40127 3.20128 6.38656 3.16092 6.41376 3.14836L11.3328 0.874256C11.3566 0.863225 11.3489 0.82752 11.3225 0.82752H8.82119C6.76714 0.909323 4.44534 1.09391 2.79946 1.842L2.59952 1.93285C2.59372 1.93547 2.58913 1.94025 2.58684 1.94618L2.5063 2.15059C0.821867 6.42158 0.343223 13.6722 0.853662 18.2145L0.880424 18.4527L1.06979 18.5997C3.70119 20.6415 7.21972 21.6913 9.4332 21.9699L9.71942 22.0059C9.81244 22.0177 9.90133 21.9638 9.93421 21.876L11.3749 18.0245C11.4198 17.9044 11.3433 17.7733 11.2168 17.7534L10.7747 17.6839C9.23319 17.4416 7.04915 16.7991 5.20345 15.1242C5.16408 15.0884 5.20205 15.0241 5.25188 15.0426C5.40187 15.0984 5.56728 15.1631 5.73759 15.2296C6.15494 15.3928 6.58656 15.5615 6.86819 15.6284C8.84751 16.0994 10.8547 16.3382 12.8381 16.3382V16.3029H12.8423L12.8425 16.3382C14.822 16.3382 16.8291 16.0994 18.8082 15.6284C19.0899 15.5614 19.5216 15.3928 19.939 15.2296C20.1092 15.163 20.2745 15.0983 20.4244 15.0426C20.4743 15.0241 20.5122 15.0885 20.4729 15.1242C18.6333 16.7917 16.4466 17.4325 14.9016 17.6747L14.4597 17.7439C14.3331 17.7637 14.2565 17.8947 14.3014 18.0148L15.7423 21.8758C15.7751 21.9637 15.8641 22.0176 15.9571 22.0059L16.2436 21.9698C18.4569 21.6913 21.9752 20.6415 24.6066 18.5996L24.796 18.4527L24.8228 18.2145C25.3333 13.6722 24.8546 6.42152 23.1703 2.15046ZM8.13617 12.6365C6.3468 12.7961 4.85396 11.3024 5.01332 9.51187C5.13553 8.13933 6.24001 7.03399 7.61171 6.91157C9.40109 6.75192 10.8939 8.24561 10.7346 10.0362C10.6123 11.4087 9.50781 12.5141 8.13617 12.6365ZM18.065 12.6365C16.2756 12.7961 14.7828 11.3024 14.9421 9.51187C15.0643 8.13933 16.1688 7.03399 17.5405 6.91157C19.3298 6.75192 20.8227 8.24561 20.6634 10.0362C20.5411 11.4087 19.4366 12.5141 18.065 12.6365Z" fill="#FAEB8C"/>
</svg>
