<svg width="25" height="17" viewBox="0 0 25 17" fill="none" xmlns="http://www.w3.org/2000/svg">
<path d="M23.5036 1.65834C22.8429 0.483106 22.1259 0.266937 20.666 0.184731C19.2076 0.0857804 15.5403 0.0446777 12.3633 0.0446777C9.18008 0.0446777 5.51129 0.0857804 4.05443 0.183209C2.59756 0.266937 1.87903 0.481584 1.21225 1.65834C0.531775 2.83205 0.181641 4.85369 0.181641 8.41288C0.181641 8.41592 0.181641 8.41745 0.181641 8.41745C0.181641 8.42049 0.181641 8.42201 0.181641 8.42201V8.42506C0.181641 11.969 0.531775 14.0059 1.21225 15.1674C1.87903 16.3427 2.59604 16.5558 4.0529 16.6547C5.51129 16.74 9.18008 16.7902 12.3633 16.7902C15.5403 16.7902 19.2076 16.74 20.6675 16.6562C22.1274 16.5573 22.8444 16.3442 23.5051 15.1689C24.1917 14.0074 24.5388 11.9705 24.5388 8.42658C24.5388 8.42658 24.5388 8.42201 24.5388 8.41897C24.5388 8.41897 24.5388 8.41592 24.5388 8.4144C24.5388 4.85369 24.1917 2.83205 23.5036 1.65834ZM9.31557 12.9844V3.85048L16.9272 8.41745L9.31557 12.9844Z" fill="#FAEB8C"/>
</svg>
