<svg width="25" height="23" viewBox="0 0 25 23" fill="none" xmlns="http://www.w3.org/2000/svg">
<path d="M1.62564 13.9386C1.56283 14.282 1.51897 14.6297 1.51897 14.9854C1.51897 19.3135 6.4156 22.8348 12.3179 22.8348C18.2203 22.8348 23.0218 19.3135 23.0218 14.9854C23.0218 14.6297 22.9779 14.282 22.9151 13.9386C23.8405 13.4562 24.4489 12.5034 24.4489 11.4174C24.4489 9.84324 23.1688 8.56306 21.5946 8.56306C20.8752 8.56306 20.1994 8.8327 19.6811 9.30285C17.8875 8.0524 15.5077 7.25704 12.8765 7.15669L14.242 1.85997L17.3214 2.93742C17.3666 4.47256 18.6217 5.70871 20.1674 5.70871C21.7416 5.70871 23.0218 4.42852 23.0218 2.85435C23.0218 1.28018 21.7416 0 20.1674 0C19.0699 0 18.1263 0.629221 17.6489 1.5396L13.2482 0.000743321L11.3988 7.17007C8.91019 7.32617 6.57133 8.10945 4.85964 9.30285C4.34136 8.8327 3.6655 8.56306 2.94615 8.56306C1.37198 8.56306 0.0917969 9.84324 0.0917969 11.4174C0.0917969 12.5034 0.700205 13.4562 1.62564 13.9386ZM16.5995 11.4174C17.7799 11.4174 18.7402 12.3778 18.7402 13.5582C18.7402 14.7386 17.7799 15.6989 16.5995 15.6989C15.4191 15.6989 14.4587 14.7386 14.4587 13.5582C14.4587 12.3778 15.4191 11.4174 16.5995 11.4174ZM16.2943 17.7213L16.9046 19.0104C15.5653 19.6452 13.9793 19.9805 12.3179 19.9805C10.6566 19.9805 8.97541 19.6452 7.63613 19.0104L8.2464 17.7211C10.5462 18.8097 13.9945 18.8097 16.2943 17.7213ZM7.94127 11.4174C9.12166 11.4174 10.082 12.3778 10.082 13.5582C10.082 14.7386 9.12166 15.6989 7.94127 15.6989C6.76087 15.6989 5.8005 14.7386 5.8005 13.5582C5.8005 12.3778 6.76087 11.4174 7.94127 11.4174Z" fill="#FAEB8C"/>
</svg>
