<svg width="24" height="21" viewBox="0 0 24 21" fill="none" xmlns="http://www.w3.org/2000/svg">
<path d="M22.3508 0.435481L0.507345 8.94764C-0.200167 9.22338 -0.157305 10.2387 0.570994 10.4537L6.12165 12.0928L8.19315 18.6659C8.40954 19.3525 9.27961 19.5606 9.78328 19.0463L12.6531 16.1161L18.284 20.2493C18.9731 20.7551 19.9544 20.3793 20.1294 19.5426L23.8588 1.71253C24.0414 0.83916 23.1822 0.111506 22.3508 0.435481ZM19.6122 4.39242L9.46604 13.3647C9.36491 13.4541 9.30054 13.5779 9.28549 13.7121L8.89486 17.1846C8.8821 17.2979 8.72362 17.3129 8.68979 17.2041L7.0826 12.0253C7.00899 11.7882 7.10497 11.5313 7.31591 11.4005L19.2975 3.96939C19.573 3.79837 19.8551 4.17768 19.6122 4.39242Z" fill="#FAEB8C"/>
</svg>
