<svg width="25" height="20" viewBox="0 0 25 20" fill="none" xmlns="http://www.w3.org/2000/svg">
<path d="M24.1819 3.19192C23.325 3.57192 22.4031 3.82893 21.4364 3.94371C22.4235 3.35233 23.181 2.4166 23.5385 1.29978C22.6149 1.84767 21.5915 2.24514 20.5032 2.45938C19.6312 1.53077 18.3889 0.950439 17.0133 0.950439C14.374 0.950439 12.2334 3.09104 12.2334 5.73034C12.2334 6.10499 12.2758 6.46966 12.3578 6.81971C8.38533 6.62044 4.86306 4.71761 2.50537 1.82486C2.094 2.53067 1.85802 3.35233 1.85802 4.22818C1.85802 5.88612 2.7025 7.34978 3.98436 8.20673C3.2012 8.18214 2.46366 7.96719 1.81952 7.60822C1.81917 7.62854 1.81917 7.64886 1.81917 7.66882C1.81917 9.9848 3.46748 11.9165 5.65371 12.3553C5.25304 12.4651 4.82991 12.5232 4.39466 12.5232C4.08596 12.5232 3.78688 12.4936 3.49529 12.438C4.10342 14.3366 5.8683 15.7186 7.96042 15.7575C6.32423 17.0397 4.26348 17.8036 2.02342 17.8036C1.63844 17.8036 1.25701 17.7812 0.883789 17.7366C2.99801 19.0933 5.51112 19.8843 8.21031 19.8843C17.0023 19.8843 21.8103 12.6009 21.8103 6.28394C21.8103 6.07683 21.8057 5.87043 21.7964 5.66582C22.7311 4.99209 23.5413 4.15047 24.1819 3.19192Z" fill="#FAEB8C"/>
</svg>
